# Blender 3.6.2
# www.blender.org
mtllib Corridor_Floor_X-Section_01.mtl
o Corridor_Floor_X-Section_01
v 0.000002 0.000000 -2.000001
v 1.000006 0.000000 -4.000000
v 0.000004 0.000000 -3.250001
v 0.000004 0.000000 -3.000001
v 0.000006 0.000000 -4.000001
v 1.000004 0.000000 -3.000000
v 0.750006 0.000000 -4.000000
v 1.000005 0.000000 -3.900000
v 0.100004 0.000000 -3.000001
v 0.000005 0.000000 -3.744897
v 0.258085 0.000000 -4.000000
v 0.015358 0.000000 -3.000001
v 0.015359 0.000000 -3.760074
v 0.000004 0.000000 -2.975610
v 1.024395 0.000000 -2.975609
v 1.024396 0.000000 -3.990494
v 0.024466 0.000000 -2.975610
v 1.024396 0.000000 -4.000000
v 1.972098 0.000000 -1.999998
v 0.994863 0.000000 -2.975609
v 1.024395 0.000000 -2.999896
v 2.000003 0.000000 -2.028409
v 0.375006 0.000000 -3.625001
v 0.128298 0.000000 -3.871710
v 0.550006 0.000000 -3.450002
v 0.024464 0.000000 -2.000001
v 2.000005 0.000000 -3.990493
v 0.015359 0.000000 -3.265355
v 0.240164 0.000000 -3.982287
v 0.732330 0.000000 -3.982325
v 1.000006 0.000000 -3.990494
v 0.745733 0.000000 -3.982734
v 0.988688 0.000000 -4.000000
v 0.988015 0.000000 -3.990128
v 0.015358 0.000000 -3.009498
v 0.000004 0.000000 -3.009621
v 0.015359 0.000000 -3.248480
v 0.000002 0.000000 -1.000000
v 0.750002 0.000000 0.000001
v 1.000002 0.000000 0.000001
v 0.000001 0.000000 0.000000
v 1.000002 0.000000 -0.999999
v 0.000002 0.000000 -0.750000
v 0.100002 0.000000 -1.000000
v 1.000002 0.000000 -0.099999
v 0.255106 0.000000 0.000000
v 0.000002 0.000000 -0.258080
v 1.000002 0.000000 -0.015353
v 0.239929 0.000000 -0.015354
v 1.024393 0.000000 0.000001
v 1.024393 0.000000 -1.024390
v 0.009508 0.000000 -1.024390
v 1.024393 0.000000 -0.024461
v 0.000002 0.000000 -1.024390
v 2.000003 0.000000 -1.972094
v 1.024393 0.000000 -0.994858
v 1.000106 0.000000 -1.024390
v 1.971592 0.000000 -1.999998
v 0.375001 0.000000 -0.375000
v 0.128293 0.000000 -0.128292
v 0.550001 0.000000 -0.550001
v 2.000002 0.000000 -0.024460
v 0.009508 0.000000 -2.000000
v 0.734647 0.000000 -0.015354
v 0.017715 0.000000 -0.240159
v 0.017677 0.000000 -0.732325
v 0.009508 0.000000 -1.000000
v 0.017268 0.000000 -0.745728
v 0.000002 0.000000 -0.988683
v 0.009874 0.000000 -0.988009
v 0.990505 0.000000 -0.015353
v 0.990382 0.000000 0.000001
v 0.751523 0.000000 -0.015354
v 4.000003 0.000000 -1.999997
v 3.000000 0.000000 0.000002
v 2.000001 0.000000 0.000001
v 4.000001 0.000000 -0.749997
v 4.000002 0.000000 -0.999997
v 4.000000 0.000000 0.000003
v 3.000002 0.000000 -0.999998
v 3.250000 0.000000 0.000002
v 3.000001 0.000000 -0.099998
v 3.900002 0.000000 -0.999997
v 4.000001 0.000000 -0.255101
v 3.741921 0.000000 0.000003
v 3.984648 0.000000 -0.999997
v 3.984647 0.000000 -0.239924
v 4.000002 0.000000 -1.024388
v 2.975611 0.000000 -1.024388
v 2.975610 0.000000 -0.009503
v 3.975540 0.000000 -1.024388
v 2.975610 0.000000 0.000002
v 2.027907 0.000000 -1.999999
v 3.005143 0.000000 -1.024388
v 2.975611 0.000000 -1.000101
v 2.000003 0.000000 -1.971588
v 3.625000 0.000000 -0.374996
v 3.871708 0.000000 -0.128288
v 3.450000 0.000000 -0.549996
v 3.975541 0.000000 -1.999997
v 2.000001 0.000000 -0.009504
v 3.984647 0.000000 -0.734642
v 3.759842 0.000000 -0.017711
v 3.267676 0.000000 -0.017673
v 3.000000 0.000000 -0.009503
v 3.254273 0.000000 -0.017264
v 3.011318 0.000000 0.000002
v 3.011992 0.000000 -0.009869
v 3.984648 0.000000 -0.990500
v 4.000002 0.000000 -0.990377
v 3.984647 0.000000 -0.751518
v 2.000005 0.000000 -3.999999
v 4.000004 0.000000 -2.999996
v 3.250005 0.000000 -3.999997
v 3.000005 0.000000 -3.999997
v 2.000002 0.000000 -1.999999
v 4.000005 0.000000 -3.999995
v 3.000004 0.000000 -2.999997
v 4.000004 0.000000 -3.249995
v 3.900004 0.000000 -2.999996
v 3.000005 0.000000 -3.899997
v 3.744901 0.000000 -3.999996
v 4.000005 0.000000 -3.741916
v 3.000005 0.000000 -3.984643
v 3.760078 0.000000 -3.984642
v 2.975614 0.000000 -3.999997
v 2.975613 0.000000 -2.975607
v 3.990498 0.000000 -2.975605
v 2.975614 0.000000 -3.975536
v 4.000003 0.000000 -2.975605
v 2.000002 0.000000 -2.027903
v 2.975613 0.000000 -3.005138
v 2.999901 0.000000 -2.975607
v 2.028413 0.000000 -1.999999
v 3.625005 0.000000 -3.624995
v 3.871714 0.000000 -3.871704
v 3.450006 0.000000 -3.449995
v 2.000005 0.000000 -3.975537
v 3.990497 0.000000 -1.999996
v 3.265359 0.000000 -3.984643
v 3.982291 0.000000 -3.759837
v 3.982329 0.000000 -3.267671
v 3.990498 0.000000 -2.999996
v 3.982738 0.000000 -3.254268
v 4.000004 0.000000 -3.011313
v 3.990133 0.000000 -3.011987
v 3.009502 0.000000 -3.984643
v 3.009625 0.000000 -3.999997
v 3.248484 0.000000 -3.984643
vn -0.0000 1.0000 -0.0000
vt 0.737444 0.747859
vt 0.756584 0.746300
vt 0.760935 0.752336
vt 0.819749 0.745875
vt 0.824706 0.752077
vt 0.872827 0.877405
vt 0.608476 0.877405
vt 0.608476 0.745875
vt 0.824032 0.250786
vt 0.969394 0.396861
vt 0.962249 0.396861
vt 0.816939 0.250838
vt 0.243868 0.247283
vt 0.243868 0.255632
vt 0.261261 0.255632
vt 0.246632 0.246995
vt 0.750665 0.410242
vt 1.086723 0.250943
vt 0.750665 0.250943
vt 0.751349 0.501465
vt 0.743941 0.493937
vt 0.741791 0.501782
vt 0.753009 0.499803
vt 0.752629 0.494655
vt 0.757748 0.494655
vt 0.749392 0.493318
vt 0.743945 0.493318
vt 0.744530 0.250707
vt 0.749392 0.250707
vt 0.587834 0.250015
vt 0.651421 0.313603
vt 0.599138 0.250081
vt 0.706753 0.250705
vt 0.714275 0.250748
vt 0.670635 0.748211
vt 0.671833 0.753278
vt 0.627392 0.749573
vt 0.750976 0.396861
vt 0.750976 0.251223
vt 0.295532 0.504496
vt 0.292936 0.494044
vt 0.369813 0.494068
vt 0.372374 0.504495
vt 0.749392 0.501141
vt 0.748816 0.501141
vt 0.752262 0.490467
vt 0.756694 0.495694
vt 0.757998 0.249814
vt 0.752262 0.250208
vt 0.744530 0.495271
vt 0.501593 0.495271
vt 0.264928 0.250707
vt 0.243868 0.500218
vt 0.261524 0.500218
vt 0.744065 0.500218
vt 0.499448 0.255632
vt 0.742768 0.499234
vt 0.742768 0.253079
vt 0.747019 0.256178
vt 0.746769 0.499110
vt 0.494959 0.493317
vt 0.743335 0.501141
vt 0.494985 0.501141
vt 0.372261 0.255632
vt 0.373548 0.245408
vt 0.261871 0.245408
vt 0.743886 0.876252
vt 0.745685 0.874171
vt 0.747412 0.877307
vt 0.414607 0.250943
vt 0.651421 0.250384
vt 0.538073 0.396861
vt 0.683354 0.251603
vt 0.749011 0.251223
vt 0.749011 0.396861
vt 0.340865 0.877405
vt 0.391496 0.750758
vt 0.395573 0.745875
vt 0.606511 0.745875
vt 0.606511 0.877405
vt 0.740815 0.758936
vt 0.606302 0.758878
vt 0.597337 0.743444
vt 0.758191 0.742505
vt 0.317801 0.839028
vt 0.605744 0.749275
vt 0.589264 0.751212
vt 0.590144 0.749347
vt 0.606705 0.747136
vt 0.809230 0.751349
vt 0.806932 0.747603
vt 0.810913 0.745468
vt 0.813093 0.749221
vt 0.862765 0.874773
vt 0.906172 0.872359
vt 0.904874 0.876635
vt 0.775824 0.754845
vt 0.773926 0.742963
vt 0.874022 0.743208
vt 0.874238 0.753989
vt 0.894900 0.839907
s 0
usemtl Floor_Trim
f 7/1/1 30/2/1 32/3/1
f 28/4/1 37/5/1 9/6/1 25/7/1 23/8/1
f 10/9/1 3/10/1 28/11/1 13/12/1
f 4/13/1 14/14/1 17/15/1 12/16/1
f 6/17/1 8/18/1 25/19/1
f 6/20/1 20/21/1 15/22/1
f 6/23/1 15/24/1 21/25/1
f 18/26/1 16/27/1 27/28/1 112/29/1
f 11/30/1 5/31/1 29/32/1
f 13/33/1 5/31/1 10/34/1
f 31/35/1 34/36/1 8/37/1
f 13/12/1 28/11/1 23/38/1 24/39/1
f 11/40/1 29/41/1 30/42/1 7/43/1
f 16/27/1 18/26/1 2/44/1 31/45/1
f 15/46/1 20/47/1 19/48/1 116/49/1
f 16/50/1 21/51/1 22/52/1 27/28/1
f 1/53/1 26/54/1 17/15/1 14/14/1
f 19/55/1 20/56/1 17/15/1 26/54/1
f 22/57/1 21/58/1 15/59/1 116/60/1
f 21/61/1 16/27/1 8/62/1 6/63/1
f 20/64/1 6/65/1 9/66/1 17/15/1
f 3/67/1 37/68/1 28/69/1
f 25/19/1 9/70/1 6/17/1
f 24/71/1 5/31/1 13/33/1
f 12/16/1 17/15/1 9/66/1
f 31/45/1 8/62/1 16/27/1
f 29/32/1 5/31/1 24/71/1
f 30/72/1 29/73/1 24/74/1 23/75/1
f 8/76/1 32/77/1 30/78/1 23/79/1 25/80/1
f 32/81/1 34/82/1 33/83/1 7/84/1
f 8/76/1 34/85/1 32/77/1
f 33/86/1 34/87/1 31/88/1 2/89/1
f 35/90/1 36/91/1 4/92/1 12/93/1
f 9/94/1 35/95/1 12/96/1
f 37/97/1 3/98/1 36/99/1 35/100/1
f 9/6/1 37/5/1 35/101/1
f 43/1/1 66/2/1 68/3/1
f 64/4/1 73/5/1 45/6/1 61/7/1 59/8/1
f 46/9/1 39/10/1 64/11/1 49/12/1
f 40/13/1 50/14/1 53/15/1 48/16/1
f 42/17/1 44/18/1 61/19/1
f 42/20/1 56/21/1 51/22/1
f 42/23/1 51/24/1 57/25/1
f 54/26/1 52/27/1 63/28/1 1/29/1
f 47/30/1 41/31/1 65/32/1
f 49/33/1 41/31/1 46/34/1
f 67/35/1 70/36/1 44/37/1
f 49/12/1 64/11/1 59/38/1 60/39/1
f 47/40/1 65/41/1 66/42/1 43/43/1
f 52/27/1 54/26/1 38/44/1 67/45/1
f 51/46/1 56/47/1 55/48/1 116/49/1
f 52/50/1 57/51/1 58/52/1 63/28/1
f 76/53/1 62/54/1 53/15/1 50/14/1
f 55/55/1 56/56/1 53/15/1 62/54/1
f 58/57/1 57/58/1 51/59/1 116/60/1
f 57/61/1 52/27/1 44/62/1 42/63/1
f 56/64/1 42/65/1 45/66/1 53/15/1
f 39/67/1 73/68/1 64/69/1
f 61/19/1 45/70/1 42/17/1
f 60/71/1 41/31/1 49/33/1
f 48/16/1 53/15/1 45/66/1
f 67/45/1 44/62/1 52/27/1
f 65/32/1 41/31/1 60/71/1
f 66/72/1 65/73/1 60/74/1 59/75/1
f 44/76/1 68/77/1 66/78/1 59/79/1 61/80/1
f 68/81/1 70/82/1 69/83/1 43/84/1
f 44/76/1 70/85/1 68/77/1
f 69/86/1 70/87/1 67/88/1 38/89/1
f 71/90/1 72/91/1 40/92/1 48/93/1
f 45/94/1 71/95/1 48/96/1
f 73/97/1 39/98/1 72/99/1 71/100/1
f 45/6/1 73/5/1 71/101/1
f 81/1/1 104/2/1 106/3/1
f 102/4/1 111/5/1 83/6/1 99/7/1 97/8/1
f 84/9/1 77/10/1 102/11/1 87/12/1
f 78/13/1 88/14/1 91/15/1 86/16/1
f 80/17/1 82/18/1 99/19/1
f 80/20/1 94/21/1 89/22/1
f 80/23/1 89/24/1 95/25/1
f 92/26/1 90/27/1 101/28/1 76/29/1
f 85/30/1 79/31/1 103/32/1
f 87/33/1 79/31/1 84/34/1
f 105/35/1 108/36/1 82/37/1
f 87/12/1 102/11/1 97/38/1 98/39/1
f 85/40/1 103/41/1 104/42/1 81/43/1
f 90/27/1 92/26/1 75/44/1 105/45/1
f 89/46/1 94/47/1 93/48/1 116/49/1
f 90/50/1 95/51/1 96/52/1 101/28/1
f 74/53/1 100/54/1 91/15/1 88/14/1
f 93/55/1 94/56/1 91/15/1 100/54/1
f 96/57/1 95/58/1 89/59/1 116/60/1
f 95/61/1 90/27/1 82/62/1 80/63/1
f 94/64/1 80/65/1 83/66/1 91/15/1
f 77/67/1 111/68/1 102/69/1
f 99/19/1 83/70/1 80/17/1
f 98/71/1 79/31/1 87/33/1
f 86/16/1 91/15/1 83/66/1
f 105/45/1 82/62/1 90/27/1
f 103/32/1 79/31/1 98/71/1
f 104/72/1 103/73/1 98/74/1 97/75/1
f 82/76/1 106/77/1 104/78/1 97/79/1 99/80/1
f 106/81/1 108/82/1 107/83/1 81/84/1
f 82/76/1 108/85/1 106/77/1
f 107/86/1 108/87/1 105/88/1 75/89/1
f 109/90/1 110/91/1 78/92/1 86/93/1
f 83/94/1 109/95/1 86/96/1
f 111/97/1 77/98/1 110/99/1 109/100/1
f 83/6/1 111/5/1 109/101/1
f 119/1/1 142/2/1 144/3/1
f 140/4/1 149/5/1 121/6/1 137/7/1 135/8/1
f 122/9/1 114/10/1 140/11/1 125/12/1
f 115/13/1 126/14/1 129/15/1 124/16/1
f 118/17/1 120/18/1 137/19/1
f 118/20/1 132/21/1 127/22/1
f 118/23/1 127/24/1 133/25/1
f 130/26/1 128/27/1 139/28/1 74/29/1
f 123/30/1 117/31/1 141/32/1
f 125/33/1 117/31/1 122/34/1
f 143/35/1 146/36/1 120/37/1
f 125/12/1 140/11/1 135/38/1 136/39/1
f 123/40/1 141/41/1 142/42/1 119/43/1
f 128/27/1 130/26/1 113/44/1 143/45/1
f 127/46/1 132/47/1 131/48/1 116/49/1
f 128/50/1 133/51/1 134/52/1 139/28/1
f 112/53/1 138/54/1 129/15/1 126/14/1
f 131/55/1 132/56/1 129/15/1 138/54/1
f 134/57/1 133/58/1 127/59/1 116/60/1
f 133/61/1 128/27/1 120/62/1 118/63/1
f 132/64/1 118/65/1 121/66/1 129/15/1
f 114/67/1 149/68/1 140/69/1
f 137/19/1 121/70/1 118/17/1
f 136/71/1 117/31/1 125/33/1
f 124/16/1 129/15/1 121/66/1
f 143/45/1 120/62/1 128/27/1
f 141/32/1 117/31/1 136/71/1
f 142/72/1 141/73/1 136/74/1 135/75/1
f 120/76/1 144/77/1 142/78/1 135/79/1 137/80/1
f 144/81/1 146/82/1 145/83/1 119/84/1
f 120/76/1 146/85/1 144/77/1
f 145/86/1 146/87/1 143/88/1 113/89/1
f 147/90/1 148/91/1 115/92/1 124/93/1
f 121/94/1 147/95/1 124/96/1
f 149/97/1 114/98/1 148/99/1 147/100/1
f 121/6/1 149/5/1 147/101/1
