# Blender 3.6.2
# www.blender.org
mtllib Corridor_Floor_T-Section_01.mtl
o Corridor_Floor_T-Section_01
v 2.000001 0.000000 -1.999998
v 2.000001 0.000000 -1.972094
v 2.000002 0.000000 -3.999999
v 0.000002 0.000000 -3.999999
v 2.000001 0.000000 -3.249999
v 0.000002 0.000000 -3.249999
v 0.000002 0.000000 -2.999999
v 2.000001 0.000000 -2.999999
v 1.000002 0.000000 -3.999998
v 1.000002 0.000000 -2.999999
v 1.000002 0.000000 -1.999998
v 1.000002 0.000000 -3.249999
v 4.000001 0.000000 -3.999998
v 4.000001 0.000000 -3.249998
v 4.000001 0.000000 -2.999998
v 3.000002 0.000000 -3.999998
v 3.000001 0.000000 -2.999999
v 3.000001 0.000000 -1.999998
v 3.000002 0.000000 -3.249999
v 4.000001 0.000000 -1.999997
v 2.999999 0.000000 0.000002
v 1.999999 0.000000 0.000001
v 4.000000 0.000000 -0.749997
v 4.000000 0.000000 -0.999997
v 3.999999 0.000000 0.000004
v 3.000000 0.000000 -0.999998
v 3.249999 0.000000 0.000003
v 2.999999 0.000000 -0.099998
v 3.900000 0.000000 -0.999997
v 3.999999 0.000000 -0.255101
v 3.741920 0.000000 0.000003
v 3.984646 0.000000 -0.999997
v 3.984646 0.000000 -0.239924
v 4.000000 0.000000 -1.024388
v 2.975610 0.000000 -1.024388
v 2.975609 0.000000 -0.009503
v 3.975538 0.000000 -1.024388
v 2.975609 0.000000 0.000002
v 2.027906 0.000000 -1.999999
v 3.005141 0.000000 -1.024388
v 2.975610 0.000000 -1.000101
v 2.000001 0.000000 -1.971588
v 3.624999 0.000000 -0.374996
v 3.871707 0.000000 -0.128288
v 3.449998 0.000000 -0.549996
v 3.975540 0.000000 -1.999997
v 1.999999 0.000000 -0.009504
v 3.984646 0.000000 -0.734643
v 3.759840 0.000000 -0.017711
v 3.267674 0.000000 -0.017673
v 2.999999 0.000000 -0.009503
v 3.254272 0.000000 -0.017264
v 3.011317 0.000000 0.000002
v 3.011990 0.000000 -0.009869
v 3.984646 0.000000 -0.990500
v 4.000000 0.000000 -0.990377
v 3.984646 0.000000 -0.751518
v 0.000001 0.000000 -1.000000
v 0.000002 0.000000 -2.000000
v 0.750000 0.000000 0.000001
v 1.000000 0.000000 0.000001
v 0.000000 0.000000 0.000000
v 1.000001 0.000000 -0.999999
v 0.000001 0.000000 -0.750000
v 0.100001 0.000000 -1.000000
v 1.000000 0.000000 -0.099999
v 0.255104 0.000000 0.000000
v 0.000000 0.000000 -0.258080
v 1.000000 0.000000 -0.015353
v 0.239928 0.000000 -0.015354
v 1.024391 0.000000 0.000001
v 1.024391 0.000000 -1.024390
v 0.009507 0.000000 -1.024390
v 1.024391 0.000000 -0.024461
v 0.000001 0.000000 -1.024390
v 1.024391 0.000000 -0.994858
v 1.000104 0.000000 -1.024390
v 1.971591 0.000000 -1.999998
v 0.375000 0.000000 -0.375000
v 0.128291 0.000000 -0.128292
v 0.549999 0.000000 -0.550001
v 2.000000 0.000000 -0.024460
v 0.009507 0.000000 -2.000000
v 0.734646 0.000000 -0.015354
v 0.017714 0.000000 -0.240159
v 0.017676 0.000000 -0.732325
v 0.009506 0.000000 -1.000000
v 0.017267 0.000000 -0.745728
v 0.000001 0.000000 -0.988683
v 0.009872 0.000000 -0.988009
v 0.990503 0.000000 -0.015353
v 0.990381 0.000000 0.000001
v 0.751521 0.000000 -0.015354
vn -0.0000 1.0000 -0.0000
vt 0.473792 0.938497
vt 0.473792 1.000956
vt 0.223960 1.000956
vt 0.223960 0.938497
vt 0.380627 0.623256
vt 0.380627 0.435881
vt 0.130795 0.435881
vt 0.130795 0.623256
vt 0.500167 0.250019
vt 0.500167 0.500319
vt 0.250334 0.500319
vt 0.250334 0.250019
vt 0.750000 0.250019
vt 0.750000 0.500319
vt 0.630460 0.623256
vt 0.630460 0.435881
vt 0.723625 0.938497
vt 0.723625 1.000956
vt 0.737444 0.747859
vt 0.756584 0.746300
vt 0.760935 0.752336
vt 0.819749 0.745875
vt 0.824706 0.752077
vt 0.872827 0.877405
vt 0.608476 0.877405
vt 0.608476 0.745875
vt 0.824032 0.250786
vt 0.969394 0.396861
vt 0.962249 0.396861
vt 0.816939 0.250838
vt 0.243868 0.247283
vt 0.243868 0.255632
vt 0.261261 0.255632
vt 0.246632 0.246995
vt 0.750665 0.410242
vt 1.086723 0.250943
vt 0.750665 0.250943
vt 0.751349 0.501465
vt 0.743941 0.493937
vt 0.741791 0.501782
vt 0.753009 0.499803
vt 0.752629 0.494655
vt 0.757748 0.494655
vt 0.749392 0.493318
vt 0.743945 0.493318
vt 0.744530 0.250707
vt 0.749392 0.250707
vt 0.587834 0.250015
vt 0.651421 0.313603
vt 0.599138 0.250081
vt 0.706753 0.250705
vt 0.714275 0.250748
vt 0.670635 0.748211
vt 0.671833 0.753278
vt 0.627392 0.749573
vt 0.750976 0.396861
vt 0.750976 0.251223
vt 0.295532 0.504496
vt 0.292936 0.494044
vt 0.369813 0.494068
vt 0.372374 0.504495
vt 0.749392 0.501141
vt 0.748816 0.501141
vt 0.752262 0.490467
vt 0.756694 0.495694
vt 0.757998 0.249814
vt 0.752262 0.250208
vt 0.744530 0.495271
vt 0.501593 0.495271
vt 0.264928 0.250707
vt 0.243868 0.500218
vt 0.261524 0.500218
vt 0.744065 0.500218
vt 0.499448 0.255632
vt 0.742768 0.499234
vt 0.742768 0.253079
vt 0.747019 0.256178
vt 0.746769 0.499110
vt 0.494959 0.493317
vt 0.743335 0.501141
vt 0.494985 0.501141
vt 0.372261 0.255632
vt 0.373548 0.245408
vt 0.261871 0.245408
vt 0.743886 0.876252
vt 0.745685 0.874171
vt 0.747412 0.877307
vt 0.414607 0.250943
vt 0.651421 0.250384
vt 0.538073 0.396861
vt 0.683354 0.251603
vt 0.749011 0.251223
vt 0.749011 0.396861
vt 0.340865 0.877405
vt 0.391496 0.750758
vt 0.395573 0.745875
vt 0.606511 0.745875
vt 0.606511 0.877405
vt 0.740815 0.758936
vt 0.606302 0.758878
vt 0.597337 0.743444
vt 0.758191 0.742505
vt 0.317801 0.839028
vt 0.605744 0.749275
vt 0.589264 0.751212
vt 0.590144 0.749347
vt 0.606705 0.747136
vt 0.809230 0.751349
vt 0.806932 0.747603
vt 0.810913 0.745468
vt 0.813093 0.749221
vt 0.862765 0.874773
vt 0.906172 0.872359
vt 0.904874 0.876635
vt 0.775824 0.754845
vt 0.773926 0.742963
vt 0.874022 0.743208
vt 0.874238 0.753989
vt 0.894900 0.839907
s 0
usemtl Floor_Trim
f 10/1/1 12/2/1 6/3/1 7/4/1
f 12/5/1 9/6/1 4/7/1 6/8/1
f 11/9/1 10/10/1 7/11/1 59/12/1
f 1/13/1 8/14/1 10/10/1 11/9/1
f 5/15/1 3/16/1 9/6/1 12/5/1
f 8/17/1 5/18/1 12/2/1 10/1/1
f 17/1/1 19/2/1 5/3/1 8/4/1
f 19/5/1 16/6/1 3/7/1 5/8/1
f 18/9/1 17/10/1 8/11/1 1/12/1
f 20/13/1 15/14/1 17/10/1 18/9/1
f 14/15/1 13/16/1 16/6/1 19/5/1
f 15/17/1 14/18/1 19/2/1 17/1/1
f 27/19/1 50/20/1 52/21/1
f 48/22/1 57/23/1 29/24/1 45/25/1 43/26/1
f 30/27/1 23/28/1 48/29/1 33/30/1
f 24/31/1 34/32/1 37/33/1 32/34/1
f 26/35/1 28/36/1 45/37/1
f 26/38/1 40/39/1 35/40/1
f 26/41/1 35/42/1 41/43/1
f 38/44/1 36/45/1 47/46/1 22/47/1
f 31/48/1 25/49/1 49/50/1
f 33/51/1 25/49/1 30/52/1
f 51/53/1 54/54/1 28/55/1
f 33/30/1 48/29/1 43/56/1 44/57/1
f 31/58/1 49/59/1 50/60/1 27/61/1
f 36/45/1 38/44/1 21/62/1 51/63/1
f 35/64/1 40/65/1 39/66/1 1/67/1
f 36/68/1 41/69/1 42/70/1 47/46/1
f 20/71/1 46/72/1 37/33/1 34/32/1
f 39/73/1 40/74/1 37/33/1 46/72/1
f 42/75/1 41/76/1 35/77/1 1/78/1
f 41/79/1 36/45/1 28/80/1 26/81/1
f 40/82/1 26/83/1 29/84/1 37/33/1
f 23/85/1 57/86/1 48/87/1
f 45/37/1 29/88/1 26/35/1
f 44/89/1 25/49/1 33/51/1
f 32/34/1 37/33/1 29/84/1
f 51/63/1 28/80/1 36/45/1
f 49/50/1 25/49/1 44/89/1
f 50/90/1 49/91/1 44/92/1 43/93/1
f 28/94/1 52/95/1 50/96/1 43/97/1 45/98/1
f 52/99/1 54/100/1 53/101/1 27/102/1
f 28/94/1 54/103/1 52/95/1
f 53/104/1 54/105/1 51/106/1 21/107/1
f 55/108/1 56/109/1 24/110/1 32/111/1
f 29/112/1 55/113/1 32/114/1
f 57/115/1 23/116/1 56/117/1 55/118/1
f 29/24/1 57/23/1 55/119/1
f 64/19/1 86/20/1 88/21/1
f 84/22/1 93/23/1 66/24/1 81/25/1 79/26/1
f 67/27/1 60/28/1 84/29/1 70/30/1
f 61/31/1 71/32/1 74/33/1 69/34/1
f 63/35/1 65/36/1 81/37/1
f 63/38/1 76/39/1 72/40/1
f 63/41/1 72/42/1 77/43/1
f 75/44/1 73/45/1 83/46/1 59/47/1
f 68/48/1 62/49/1 85/50/1
f 70/51/1 62/49/1 67/52/1
f 87/53/1 90/54/1 65/55/1
f 70/30/1 84/29/1 79/56/1 80/57/1
f 68/58/1 85/59/1 86/60/1 64/61/1
f 73/45/1 75/44/1 58/62/1 87/63/1
f 72/64/1 76/65/1 2/66/1 1/67/1
f 73/68/1 77/69/1 78/70/1 83/46/1
f 22/71/1 82/72/1 74/33/1 71/32/1
f 2/73/1 76/74/1 74/33/1 82/72/1
f 78/75/1 77/76/1 72/77/1 1/78/1
f 77/79/1 73/45/1 65/80/1 63/81/1
f 76/82/1 63/83/1 66/84/1 74/33/1
f 60/85/1 93/86/1 84/87/1
f 81/37/1 66/88/1 63/35/1
f 80/89/1 62/49/1 70/51/1
f 69/34/1 74/33/1 66/84/1
f 87/63/1 65/80/1 73/45/1
f 85/50/1 62/49/1 80/89/1
f 86/90/1 85/91/1 80/92/1 79/93/1
f 65/94/1 88/95/1 86/96/1 79/97/1 81/98/1
f 88/99/1 90/100/1 89/101/1 64/102/1
f 65/94/1 90/103/1 88/95/1
f 89/104/1 90/105/1 87/106/1 58/107/1
f 91/108/1 92/109/1 61/110/1 69/111/1
f 66/112/1 91/113/1 69/114/1
f 93/115/1 60/116/1 92/117/1 91/118/1
f 66/24/1 93/23/1 91/119/1
