# Blender 3.6.2
# www.blender.org
mtllib Corridor_Pipe_Decoration_01.mtl
o Corridor_Pipe_Segment_01
v -0.000002 2.101222 -0.106103
v -0.000002 2.104219 -0.083003
v -0.000002 2.095265 -0.061499
v -0.000002 2.076759 -0.047353
v -0.000002 2.053659 -0.044355
v -0.000002 2.032155 -0.053308
v -0.000002 2.018009 -0.071815
v -0.000002 2.015011 -0.094915
v -0.000002 2.023965 -0.116419
v -0.000002 2.042471 -0.130565
v -0.000002 2.065571 -0.133563
v -0.000002 2.087075 -0.124609
v 1.999998 2.101222 -0.106103
v 1.999998 2.104219 -0.083003
v 1.999998 2.095265 -0.061499
v 1.999998 2.076759 -0.047353
v 1.999998 2.053659 -0.044355
v 1.999998 2.032155 -0.053308
v 1.999998 2.018009 -0.071815
v 1.999998 2.015011 -0.094915
v 1.999998 2.023965 -0.116419
v 1.999998 2.042471 -0.130565
v 1.999998 2.065571 -0.133563
v 1.999998 2.087075 -0.124609
v -0.000002 2.220521 -0.115210
v -0.000002 2.228749 -0.093418
v -0.000002 2.224980 -0.070431
v -0.000002 2.210222 -0.052409
v -0.000002 2.188430 -0.044180
v -0.000002 2.165443 -0.047950
v -0.000002 2.147421 -0.062708
v -0.000002 2.139192 -0.084500
v -0.000002 2.142962 -0.107487
v -0.000002 2.157720 -0.125509
v -0.000002 2.179512 -0.133737
v -0.000002 2.202498 -0.129968
v 1.999998 2.220521 -0.115210
v 1.999998 2.228749 -0.093418
v 1.999998 2.224980 -0.070431
v 1.999998 2.210222 -0.052409
v 1.999998 2.188430 -0.044180
v 1.999998 2.165443 -0.047950
v 1.999998 2.147421 -0.062708
v 1.999998 2.139192 -0.084500
v 1.999998 2.142962 -0.107487
v 1.999998 2.157720 -0.125509
v 1.999998 2.179512 -0.133737
v 1.999998 2.202498 -0.129968
vn -0.0000 -0.3810 -0.9246
vn -0.0000 -0.7922 -0.6102
vn -0.0000 -0.9246 0.3810
vn -0.0000 -0.6102 0.7922
vn -0.0000 0.3810 0.9246
vn -0.0000 0.7922 0.6102
vn -0.0000 0.1324 -0.9912
vn -0.0000 -0.9912 -0.1324
vn -0.0000 -0.1324 0.9912
vn -0.0000 0.6102 -0.7922
vn -0.0000 0.9912 0.1324
vn -0.0000 0.9246 -0.3810
vn -0.0000 -0.5834 -0.8122
vn -0.0000 -0.9113 -0.4117
vn -0.0000 -0.8122 0.5834
vn -0.0000 -0.4117 0.9113
vn -0.0000 0.5834 0.8122
vn -0.0000 0.9113 0.4117
vn -0.0000 -0.0991 -0.9951
vn -0.0000 -0.9951 0.0991
vn -0.0000 0.0991 0.9951
vn -0.0000 0.4117 -0.9113
vn -0.0000 0.9951 -0.0991
vn -0.0000 0.8122 -0.5834
vt 0.088714 0.825222
vt 0.911286 0.825222
vt 0.911286 0.818921
vt 0.088714 0.818921
vt 0.088714 0.806318
vt 0.911286 0.806318
vt 0.911286 0.800017
vt 0.088714 0.800017
vt 0.088714 0.787414
vt 0.911286 0.787414
vt 0.911286 0.781113
vt 0.088714 0.781113
vt 0.088714 0.831524
vt 0.911286 0.831524
vt 0.088714 0.812620
vt 0.911286 0.812620
vt 0.088714 0.793716
vt 0.911286 0.793716
vt 0.088714 0.837825
vt 0.911286 0.837825
vt 0.088714 0.774811
vt 0.911286 0.774811
vt 0.911286 0.768510
vt 0.088714 0.768510
vt 0.088714 0.844127
vt 0.911286 0.844127
s 1
usemtl Wall_Trim
f 10/1/1 22/2/1 21/3/2 9/4/2
f 7/5/3 19/6/3 18/7/4 6/8/4
f 4/9/5 16/10/5 15/11/6 3/12/6
f 11/13/7 23/14/7 22/2/1 10/1/1
f 8/15/8 20/16/8 19/6/3 7/5/3
f 5/17/9 17/18/9 16/10/5 4/9/5
f 12/19/10 24/20/10 23/14/7 11/13/7
f 2/21/11 14/22/11 13/23/12 1/24/12
f 9/4/2 21/3/2 20/16/8 8/15/8
f 6/8/4 18/7/4 17/18/9 5/17/9
f 1/25/12 13/26/12 24/20/10 12/19/10
f 3/12/6 15/11/6 14/22/11 2/21/11
f 34/1/13 46/2/13 45/3/14 33/4/14
f 31/5/15 43/6/15 42/7/16 30/8/16
f 28/9/17 40/10/17 39/11/18 27/12/18
f 35/13/19 47/14/19 46/2/13 34/1/13
f 32/15/20 44/16/20 43/6/15 31/5/15
f 29/17/21 41/18/21 40/10/17 28/9/17
f 36/19/22 48/20/22 47/14/19 35/13/19
f 26/21/23 38/22/23 37/23/24 25/24/24
f 33/4/14 45/3/14 44/16/20 32/15/20
f 30/8/16 42/7/16 41/18/21 29/17/21
f 25/25/24 37/26/24 48/20/22 36/19/22
f 27/12/18 39/11/18 38/22/23 26/21/23
